<?xml version="1.0" encoding="UTF-8"?>
<svg id="Layer_1" data-name="Layer 1" xmlns="http://www.w3.org/2000/svg" viewBox="0 0 29.54 29.45">
  <circle cx="14.77" cy="14.72" r="14.72" style="fill: #fff;"/>
  <g>
    <path d="M14.75,10.25c.63,0,1.24-.19,1.76-.53.52-.35.93-.84,1.17-1.42.24-.58.3-1.22.18-1.83-.12-.62-.42-1.18-.87-1.62-.44-.44-1.01-.75-1.62-.87-.62-.12-1.25-.06-1.83.18-.58.24-1.07.65-1.42,1.17-.35.52-.53,1.13-.53,1.76,0,.84.34,1.65.93,2.24.59.59,1.4.93,2.24.93ZM14.75,5.15c.38,0,.75.11,1.07.32.32.21.56.51.71.86.15.35.18.74.11,1.11-.07.37-.26.72-.53.99-.27.27-.61.45-.99.53-.37.07-.76.04-1.11-.11-.35-.15-.65-.39-.86-.71-.21-.32-.32-.69-.32-1.07,0-.51.2-1,.56-1.36.36-.36.85-.56,1.36-.56Z" style="fill: #0067ff;"/>
    <path d="M22.35,11.55h-5.54c-.53,0-1.06.08-1.56.24h-.03s0,0,0,0c-.15.05-.29.1-.44.16-.37.16-.72.36-1.05.6-.44.32-.82.7-1.14,1.14-.24.33-.44.68-.59,1.05-.06.14-.11.29-.16.44h0s0,.04,0,.04c-.08.25-.14.51-.18.77-.04.26-.06.53-.06.79v5.54c0,1.75,1.4,3.19,3.12,3.22h.05c.84,0,1.65-.34,2.24-.93.59-.59.93-1.4.93-2.24v-4.19c0-.07.03-.15.08-.2.05-.05.12-.08.2-.08h4.19c.42,0,.84-.09,1.22-.25.39-.16.74-.4,1.03-.7.29-.3.53-.65.68-1.04.16-.39.23-.81.23-1.23-.02-1.72-1.47-3.12-3.21-3.12ZM22.35,16.65h-4.57c-.3,0-.58.12-.79.33s-.33.49-.33.79v4.57c0,1.06-.84,1.94-1.88,1.97-.26,0-.51-.04-.75-.13-.24-.09-.46-.23-.64-.41-.18-.18-.33-.39-.43-.63-.1-.24-.15-.49-.15-.75v-5.66s0-.01,0-.02v-.14s0-.01,0-.02h0s0-.06,0-.09c0-.03,0-.04,0-.06,0-.02,0-.06,0-.09v-.07s0-.01,0-.02h0s0-.08,0-.08c0-.03.01-.07.02-.1,0-.03.01-.07.02-.1.01-.06.03-.13.05-.19,0-.03.02-.06.03-.1,0-.03.01-.05.02-.07,0-.03.01-.04.02-.05,0-.02.01-.03.02-.05h0s0-.04,0-.04v-.02s.04-.09.04-.09c.01-.03.03-.07.04-.1,0,0,0-.02.01-.03,0-.01.01-.03.02-.04l.04-.09s.03-.06.04-.09c.01-.03.03-.06.04-.08l.05-.08s.03-.06.05-.08l.05-.08s.03-.05.05-.08c.02-.03.04-.05.05-.08l.06-.08s.04-.05.06-.08c.02-.03.04-.05.06-.08s.04-.05.06-.07c.02-.02.04-.05.06-.07.02-.02.04-.05.07-.07.02-.02.04-.05.07-.07.02-.02.04-.04.07-.07.02-.02.05-.04.07-.07.02-.02.05-.04.07-.06.02-.02.05-.04.07-.06s.05-.04.07-.06l.08-.06.08-.06s.05-.04.08-.05c.03-.02.05-.04.08-.05l.08-.05s.06-.03.08-.05c.03-.02.05-.03.08-.05l.08-.04s.06-.03.09-.04l.09-.04s.03-.01.05-.02h.03s.1-.06.1-.06l.09-.03h.02s.03-.02.03-.02h0l.05-.02.05-.02.07-.02s.06-.02.1-.03c.07-.02.13-.03.19-.05l.1-.02.1-.02h.06s.01-.01.01-.01h.06s.01,0,.01,0h.02s.06,0,.08,0h.06s.06-.01.08-.01h5.87c.26,0,.51.05.75.15.24.1.45.25.63.43.18.18.32.4.41.64.09.24.14.49.13.75-.03,1.02-.91,1.86-1.97,1.86Z" style="fill: #ff9100;"/>
    <path d="M9.75,16.65h-2.65c-.26,0-.51-.04-.75-.14-.24-.09-.45-.24-.64-.41-.18-.18-.33-.39-.43-.63-.1-.24-.15-.49-.15-.75s.05-.51.15-.75c.1-.24.24-.45.43-.63.18-.18.4-.32.64-.41.24-.09.49-.14.75-.14h4.62l.04-.05s.02-.03.03-.04h0c.14-.17.29-.33.44-.48.15-.15.31-.3.47-.44l.27-.24h-5.89c-.83.01-1.63.35-2.21.95-.58.59-.91,1.39-.91,2.22s.33,1.63.91,2.23c.58.59,1.38.93,2.21.95h3.24v-.13c0-.32.02-.65.05-.96v-.16s-.63,0-.63,0h0Z" style="fill: #0067ff;"/>
  </g>
</svg>