<svg width="24" height="24" viewBox="0 0 24 24" fill="none" xmlns="http://www.w3.org/2000/svg">
<g clip-path="url(#clip0_1250_3154)">
<rect width="24" height="24" rx="3" fill="white"/>
<rect width="400" height="400" fill="white"/>
<path d="M11.9668 8.264C12.4907 8.264 13.0029 8.10863 13.4386 7.81753C13.8742 7.52644 14.2138 7.1127 14.4143 6.62863C14.6148 6.14455 14.6673 5.61189 14.5651 5.09801C14.4628 4.58412 14.2105 4.11208 13.84 3.74159C13.4695 3.3711 12.9975 3.11879 12.4836 3.01657C11.9697 2.91435 11.4371 2.96682 10.953 3.16732C10.4689 3.36783 10.0552 3.70738 9.76409 4.14304C9.473 4.57869 9.31763 5.09088 9.31763 5.61483C9.3185 6.31717 9.59788 6.99049 10.0945 7.48712C10.5911 7.98374 11.2645 8.26313 11.9668 8.264ZM11.9668 4.00641C12.2849 4.00628 12.596 4.1005 12.8606 4.27716C13.1252 4.45382 13.3314 4.70497 13.4532 4.99886C13.5751 5.29275 13.607 5.61617 13.545 5.92822C13.4831 6.24026 13.3299 6.52692 13.105 6.75193C12.8801 6.97693 12.5935 7.13019 12.2815 7.1923C11.9695 7.25442 11.646 7.2226 11.3521 7.10088C11.0581 6.97917 10.8069 6.77301 10.6301 6.50849C10.4534 6.24398 10.359 5.93298 10.359 5.61483C10.3595 5.18853 10.5291 4.77982 10.8305 4.47832C11.1318 4.17681 11.5405 4.00711 11.9668 4.00641Z" fill="#246BFD"/>
<path d="M18.3151 9.35203H13.6863C13.2439 9.35093 12.8038 9.4174 12.3814 9.54914L12.3532 9.55572H12.3499C12.2264 9.59579 12.1042 9.64113 11.9859 9.69172C11.6754 9.82446 11.3813 9.99268 11.1094 10.193C10.7454 10.4591 10.4247 10.7798 10.1587 11.1438C9.96016 11.4159 9.79371 11.71 9.66263 12.0203C9.61204 12.1385 9.5667 12.2614 9.52662 12.3843V12.3882L9.52005 12.4158C9.45342 12.6257 9.40334 12.8406 9.37025 13.0584C9.3368 13.2775 9.3201 13.4989 9.32031 13.7207V18.3495C9.32031 19.8094 10.4905 21.0151 11.9287 21.0367H11.9701C12.6725 21.0359 13.3458 20.7565 13.8424 20.2599C14.339 19.7632 14.6184 19.0899 14.6193 18.3876V14.8856C14.6193 14.8234 14.644 14.7637 14.688 14.7197C14.732 14.6757 14.7917 14.651 14.8539 14.651H18.3559C18.7067 14.6498 19.0538 14.5791 19.377 14.4429C19.7003 14.3067 19.9934 14.1077 20.2393 13.8575C20.4852 13.6073 20.679 13.3108 20.8095 12.9851C20.9401 12.6595 21.0047 12.3112 20.9998 11.9605C20.9807 10.5216 19.7751 9.35203 18.3151 9.35203ZM18.321 13.6096H14.5056C14.2589 13.6098 14.0224 13.7079 13.848 13.8823C13.6735 14.0567 13.5754 14.2933 13.5753 14.54V18.3554C13.5753 19.2398 12.8716 19.9756 12.0056 19.998C11.7912 20.003 11.578 19.9651 11.3785 19.8865C11.179 19.8079 10.9972 19.6902 10.8438 19.5404C10.6904 19.3905 10.5685 19.2115 10.4852 19.0139C10.402 18.8163 10.3591 18.604 10.3591 18.3895V13.6589C10.3588 13.6528 10.3588 13.6466 10.3591 13.6405C10.3591 13.6201 10.3591 13.6004 10.3591 13.5787V13.5649C10.3591 13.5571 10.3591 13.5492 10.3591 13.5413V13.5249C10.3588 13.5196 10.3588 13.5143 10.3591 13.5091V13.5045C10.3591 13.4815 10.3591 13.4578 10.3643 13.4348C10.3696 13.4119 10.3643 13.4027 10.3689 13.3862C10.3735 13.3698 10.3735 13.3389 10.3768 13.314V13.2956L10.3827 13.2529C10.3827 13.2469 10.3827 13.241 10.3827 13.2358V13.2266L10.3906 13.1727C10.3959 13.1451 10.4005 13.1175 10.4057 13.0906C10.411 13.0636 10.4162 13.036 10.4222 13.0091C10.434 12.9572 10.4465 12.9033 10.4616 12.8494C10.4682 12.8225 10.476 12.7962 10.4839 12.7699C10.4918 12.7436 10.4957 12.7299 10.503 12.7075C10.5102 12.6852 10.5122 12.6779 10.5181 12.6622C10.524 12.6464 10.5273 12.6352 10.5312 12.6228V12.6136L10.5391 12.5912L10.5457 12.5741L10.5733 12.5005C10.5844 12.4723 10.5963 12.444 10.6094 12.4132C10.6127 12.4053 10.616 12.3974 10.6212 12.3869C10.6265 12.3764 10.6304 12.3639 10.6364 12.3514L10.6705 12.2785C10.6823 12.2542 10.6942 12.2298 10.7067 12.2055C10.7191 12.1812 10.731 12.1582 10.7441 12.1352L10.7835 12.0643C10.7967 12.0406 10.8111 12.0176 10.8249 11.9946L10.8676 11.9289C10.8814 11.9066 10.8965 11.8842 10.911 11.8632C10.9255 11.8422 10.9406 11.8192 10.9563 11.7975L11.0036 11.7318C11.0194 11.7101 11.0358 11.6891 11.0523 11.6661C11.0687 11.6431 11.0851 11.6234 11.1022 11.6004C11.1193 11.5774 11.1364 11.559 11.1541 11.5393C11.1718 11.5196 11.1896 11.4986 11.2073 11.4795C11.2251 11.4605 11.2428 11.4401 11.2619 11.4204C11.2809 11.4007 11.2986 11.3823 11.3177 11.3632C11.3368 11.3442 11.3552 11.3258 11.3742 11.308C11.3933 11.2903 11.4136 11.2712 11.4333 11.2535C11.453 11.2358 11.4728 11.218 11.4931 11.2003C11.5135 11.1825 11.5339 11.1655 11.5536 11.149C11.5733 11.1326 11.595 11.1149 11.616 11.0984L11.6817 11.0492L11.7474 11.0025C11.7684 10.9867 11.7908 10.9723 11.8131 10.9572C11.8354 10.9421 11.8571 10.9276 11.8788 10.9131L11.9445 10.8711C11.9675 10.8573 11.9905 10.8428 12.0142 10.8297C12.0378 10.8166 12.0588 10.8041 12.0851 10.7903L12.1561 10.7528C12.1797 10.7403 12.204 10.7285 12.2277 10.7174L12.3019 10.6825C12.3143 10.6763 12.327 10.6709 12.34 10.6661L12.3657 10.6543L12.4504 10.6195L12.5227 10.5919L12.5385 10.5866L12.5648 10.5767H12.5726L12.6134 10.5629L12.6587 10.5478L12.7192 10.5294C12.7461 10.5216 12.7724 10.5137 12.7987 10.5071C12.8532 10.492 12.9071 10.4795 12.959 10.4677L13.0404 10.4513L13.1226 10.4368L13.1751 10.4283H13.1857H13.206L13.2362 10.4243H13.2454H13.2658C13.289 10.4208 13.3127 10.4182 13.3368 10.4164L13.3854 10.4118C13.4077 10.4118 13.4314 10.4079 13.4544 10.4066H13.459H13.4767H13.5096H13.5332H13.549H13.6101H18.3559C18.5703 10.4066 18.7826 10.4495 18.9802 10.5327C19.1778 10.616 19.3568 10.7379 19.5067 10.8913C19.6565 11.0447 19.7742 11.2265 19.8528 11.426C19.9314 11.6255 19.9693 11.8387 19.9643 12.0531C19.9413 12.9059 19.2054 13.6096 18.321 13.6096Z" fill="#FE9615"/>
<path d="M7.79304 13.6096H5.58014C5.36623 13.6139 5.1536 13.5755 4.95472 13.4967C4.75583 13.4178 4.57467 13.3 4.42186 13.1503C4.26905 13.0005 4.14765 12.8218 4.06478 12.6245C3.9819 12.4273 3.93922 12.2155 3.93922 12.0015C3.93922 11.7876 3.9819 11.5758 4.06478 11.3785C4.14765 11.1813 4.26905 11.0025 4.42186 10.8528C4.57467 10.703 4.75583 10.5853 4.95472 10.5064C5.1536 10.4275 5.36623 10.3891 5.58014 10.3934H9.4422L9.4757 10.3527C9.4849 10.3409 9.49476 10.3304 9.50461 10.3185L9.5125 10.3093C9.62879 10.174 9.75232 10.0406 9.87912 9.91511C10.0059 9.78962 10.1419 9.66479 10.2733 9.54849L10.5007 9.35138H5.58014C4.88468 9.36233 4.22141 9.64629 3.73347 10.142C3.24553 10.6377 2.97205 11.3053 2.97205 12.0009C2.97205 12.6964 3.24553 13.3641 3.73347 13.8598C4.22141 14.3555 4.88468 14.6394 5.58014 14.6504H8.28384V14.5439C8.2891 14.2739 8.30224 14.0025 8.32195 13.7384L8.33115 13.607H7.79304V13.6096Z" fill="#246BFD"/>
</g>
<defs>
<clipPath id="clip0_1250_3154">
<rect width="24" height="24" rx="3" fill="white"/>
</clipPath>
</defs>
</svg>
